<?xml version="1.0" standalone="no"?>
<!DOCTYPE svg PUBLIC "-//W3C//DTD SVG 20010904//EN"
 "http://www.w3.org/TR/2001/REC-SVG-20010904/DTD/svg10.dtd">
<svg version="1.0" xmlns="http://www.w3.org/2000/svg"
 width="866.000000pt" height="866.000000pt" viewBox="0 0 866.000000 866.000000"
 preserveAspectRatio="xMidYMid meet">
<metadata>
Created by potrace 1.14, written by Peter Selinger 2001-2017
</metadata>
<g transform="translate(0.000000,866.000000) scale(0.100000,-0.100000)"
fill="#000000" stroke="none">
<path d="M2150 6132 c-70 -26 -102 -47 -148 -94 -74 -76 -103 -156 -98 -269 5
-119 83 -240 191 -297 103 -54 249 -48 348 15 99 62 147 140 166 267 24 160
-83 328 -241 377 -58 18 -169 19 -218 1z"/>
<path d="M4795 5196 c-299 -69 -513 -322 -542 -641 -31 -337 79 -597 316 -750
38 -25 72 -45 75 -45 2 0 17 -5 33 -12 32 -13 26 -11 78 -26 116 -32 327 -34
408 -3 24 9 26 10 58 18 12 4 47 20 78 36 202 107 321 285 357 532 8 56 8 222
0 270 -38 221 -114 359 -266 485 -118 98 -239 140 -415 146 -79 2 -140 -1
-180 -10z m257 -203 c51 -23 138 -98 138 -119 0 -8 4 -14 9 -14 12 0 67 -125
86 -195 30 -111 30 -350 1 -470 -24 -99 -81 -217 -125 -259 -75 -72 -256 -66
-364 14 -206 151 -267 633 -117 929 57 113 110 142 250 137 49 -2 91 -10 122
-23z"/>
<path d="M7780 5195 c-25 -8 -80 -24 -123 -36 -76 -22 -78 -23 -71 -48 4 -14
7 -35 7 -46 0 -15 -249 -635 -293 -730 -5 -11 -30 -72 -55 -135 -26 -63 -52
-128 -59 -145 -7 -16 -26 -61 -42 -99 -24 -58 -34 -71 -64 -84 -35 -15 -48
-17 -107 -14 -30 2 -38 11 -88 87 -30 47 -55 90 -55 95 0 6 -4 10 -10 10 -5 0
-10 4 -10 9 0 5 -36 67 -80 137 -44 70 -80 131 -80 135 0 4 25 22 56 39 106
61 203 187 220 286 41 231 -95 418 -357 495 -69 20 -100 22 -474 25 -220 1
-408 0 -418 -2 -15 -5 -17 -15 -15 -62 l3 -57 78 -9 77 -8 1 -37 c0 -47 0
-1014 0 -1067 l-1 -42 -70 -28 c-80 -33 -128 -70 -111 -87 6 -6 11 -18 11 -27
0 -13 40 -15 347 -14 l348 0 5 53 c3 29 3 54 -1 57 -7 4 -25 7 -131 20 -32 3
-59 9 -59 13 -1 3 -3 97 -3 209 l-2 203 94 -3 94 -3 68 -130 c38 -71 104 -195
147 -274 l79 -145 174 -2 c363 -6 721 -6 727 0 12 12 13 94 0 104 -6 5 -41 13
-77 16 -76 8 -110 16 -110 25 0 3 21 61 46 129 l47 122 260 -2 260 -3 44 -110
c23 -60 43 -113 43 -116 0 -4 -40 -26 -90 -50 -86 -41 -90 -44 -90 -75 0 -18
5 -36 10 -39 9 -6 338 -9 608 -6 l82 1 0 55 c0 30 -3 55 -7 56 -5 0 -17 2 -28
4 -11 2 -42 7 -70 11 -27 3 -50 7 -51 7 -1 2 -35 86 -231 567 -30 74 -58 144
-63 155 -4 11 -12 31 -19 45 -9 21 -159 390 -219 537 -19 48 -29 51 -102 28z
m-1276 -221 c64 -66 81 -115 81 -234 0 -97 -2 -109 -29 -157 -34 -61 -89 -102
-163 -119 -48 -11 -161 -11 -208 0 -11 2 -23 5 -26 5 -7 1 -5 498 2 506 7 7
26 10 134 20 39 4 71 8 72 9 2 1 25 3 52 5 45 2 52 -1 85 -35z m1217 -221 c9
-21 29 -72 44 -113 15 -41 33 -88 41 -105 27 -65 84 -221 84 -232 0 -10 -45
-13 -191 -13 l-190 0 6 23 c4 12 22 61 41 109 19 49 34 91 34 95 0 5 6 19 13
33 7 14 30 73 52 133 22 59 42 107 45 107 3 0 12 -17 21 -37z"/>
<path d="M1806 5148 c70 -73 101 -122 140 -225 30 -79 39 -136 39 -248 -1
-151 -15 -214 -83 -365 -23 -50 -106 -165 -164 -228 l-37 -40 22 -15 c12 -8
44 -36 71 -63 142 -142 226 -302 260 -492 13 -69 14 -282 3 -327 -3 -11 -8
-33 -12 -50 -48 -206 -183 -389 -382 -518 -24 -15 -47 -27 -52 -27 -5 0 -12
-4 -15 -8 -3 -5 232 -8 522 -8 l526 1 1 88 c0 50 -4 88 -10 88 -5 1 -48 2 -95
3 l-85 1 -3 1152 -2 1152 91 -2 c52 -1 94 2 97 8 4 5 7 47 7 93 l0 82 -445 0
-444 0 50 -52z"/>
<path d="M3072 5181 c-6 -4 -34 -6 -62 -5 -45 2 -50 0 -51 -19 -1 -12 -2 -37
-3 -55 -1 -18 3 -37 9 -41 8 -7 78 -17 138 -21 4 0 7 -259 7 -575 l0 -575 -26
-10 c-14 -6 -54 -24 -90 -41 -58 -28 -65 -35 -62 -58 1 -14 5 -30 9 -36 8 -11
828 -12 894 -1 22 4 51 9 65 11 44 8 138 43 183 69 279 164 227 540 -90 644
-47 16 -54 21 -38 27 128 49 198 121 228 236 48 190 -70 349 -313 419 -67 20
-103 22 -343 25 -148 2 -271 5 -274 9 -3 3 -13 2 -22 -2 -19 -9 -122 -9 -137
0 -5 4 -15 3 -22 -1z m644 -176 c74 -31 131 -115 138 -203 5 -62 -11 -106 -55
-152 -59 -61 -133 -86 -265 -89 -63 -2 -84 1 -85 11 -7 77 -2 401 6 408 6 5
33 12 60 15 48 5 157 21 163 24 1 0 19 -6 38 -14z m17 -611 c64 -21 139 -96
161 -160 41 -121 4 -236 -97 -302 -40 -26 -48 -27 -157 -26 -126 1 -189 5
-191 14 -1 3 -2 113 -3 245 l-1 240 35 5 c62 9 204 0 253 -16z"/>
<path d="M270 4596 l0 -345 408 1 c366 1 414 3 476 20 160 44 240 156 237 335
-2 162 -65 259 -197 304 -62 21 -68 21 -506 26 l-418 4 0 -345z"/>
<path d="M281 3732 c-8 -3 -11 -120 -11 -395 l0 -392 427 2 c429 2 519 8 570
39 12 8 27 14 34 14 20 0 107 98 127 144 51 115 57 308 12 401 -47 99 -121
153 -241 176 -59 11 -888 21 -918 11z"/>
<path d="M4321 3594 c-144 -51 -196 -196 -107 -300 22 -26 66 -55 132 -88 121
-60 154 -88 154 -131 0 -58 -42 -77 -133 -59 -25 4 -19 -3 -59 79 l-34 70 -43
0 c-50 0 -49 4 -56 -117 l-4 -76 42 -20 c111 -52 277 -55 365 -7 116 63 141
192 58 297 -11 15 -26 27 -33 27 -6 1 -13 5 -15 9 -1 5 -51 32 -110 61 -58 28
-112 58 -119 67 -19 23 -13 76 12 97 16 13 32 16 68 11 54 -7 65 -19 82 -85
l13 -49 53 0 c48 0 53 2 54 23 0 12 2 31 5 42 2 11 6 43 8 72 3 48 1 52 -23
62 -90 35 -233 41 -310 15z"/>
<path d="M4735 3523 c9 -159 4 -148 63 -151 37 -2 52 1 53 10 0 7 2 24 4 38 2
14 5 40 6 58 3 30 6 32 41 34 21 0 44 1 51 2 9 1 12 -55 13 -247 l0 -249 -49
-24 c-33 -17 -47 -30 -45 -42 3 -15 22 -17 188 -17 l185 0 3 26 c3 25 -1 27
-45 35 l-48 9 -1 256 0 256 45 -5 c53 -6 60 -13 62 -64 1 -21 3 -42 4 -48 1
-5 3 -14 4 -20 0 -5 24 -10 51 -10 40 0 50 3 51 18 1 9 3 26 4 37 2 11 6 55 8
98 l5 77 -329 0 -328 0 4 -77z"/>
<path d="M5819 3583 c-4 -55 7 -189 17 -205 9 -14 101 -9 101 5 3 39 12 119
15 122 8 7 98 13 98 7 1 -11 1 -326 1 -418 l-1 -81 -45 -18 c-47 -20 -62 -39
-42 -52 7 -4 92 -8 189 -9 141 -1 178 2 182 12 12 32 -16 54 -71 54 -13 0 -23
3 -24 8 -1 10 -1 473 0 493 1 13 10 15 49 11 26 -2 49 -6 51 -8 3 -3 6 -19 6
-37 5 -107 0 -97 54 -97 57 0 58 2 67 103 7 87 7 77 5 105 l-1 22 -325 0
c-302 0 -325 -1 -326 -17z"/>
<path d="M7253 3508 c8 -139 6 -133 65 -136 51 -3 52 -2 53 25 2 45 8 105 11
108 2 2 25 5 53 7 l49 3 1 -235 c0 -129 -1 -242 -3 -251 -2 -9 -22 -25 -45
-35 -29 -13 -42 -25 -42 -39 0 -19 7 -20 185 -20 l185 0 2 27 c2 26 -1 28 -48
34 l-49 7 0 257 0 258 48 -5 c26 -3 48 -6 49 -7 3 -2 16 -105 16 -123 0 -9 18
-13 53 -13 l52 0 7 73 c4 39 7 90 8 112 l2 40 -329 3 -328 2 5 -92z"/>
<path d="M7954 3591 c-2 -2 -4 -15 -4 -27 0 -18 7 -25 28 -30 15 -3 31 -7 37
-8 6 -2 10 -99 10 -256 l0 -254 -40 -21 c-25 -14 -40 -29 -40 -41 0 -18 11
-19 273 -19 150 -1 276 3 278 7 6 10 18 198 13 198 -2 0 -27 3 -55 6 l-51 6
-13 -49 c-7 -26 -16 -51 -19 -54 -3 -4 -40 -10 -82 -14 l-77 -6 -3 33 c-2 18
-2 60 1 93 l5 60 90 0 c50 0 95 1 101 3 6 1 10 24 10 50 l-1 47 -45 1 c-25 1
-71 -2 -102 -6 -38 -4 -58 -2 -59 4 -1 17 -1 108 0 149 l1 37 75 0 c82 0 81 1
89 -65 3 -22 5 -41 6 -42 0 -2 24 -3 54 -3 l54 0 7 48 c13 97 14 152 2 153
-38 3 -539 3 -543 0z"/>
<path d="M2948 3572 c-3 -9 -1 -26 3 -37 4 -11 8 -17 8 -14 1 4 15 4 33 0 l32
-7 0 -252 1 -251 -42 -22 c-28 -14 -43 -29 -43 -41 0 -17 10 -18 177 -16 164
3 178 4 181 22 5 25 -7 35 -51 38 -33 2 -37 5 -38 30 -1 39 -1 422 0 456 1 21
9 31 41 46 30 14 40 25 40 43 l0 23 -169 0 c-153 0 -169 -2 -173 -18z"/>
<path d="M3362 3563 c0 -31 12 -43 44 -43 12 0 24 -6 26 -12 3 -11 3 -481 -1
-499 0 -3 -19 -14 -40 -24 -27 -12 -39 -23 -38 -36 1 -18 12 -19 149 -19 l148
0 0 30 c0 27 -3 30 -32 30 -18 0 -38 4 -43 8 -6 4 -11 59 -11 132 0 69 -3 144
-6 168 -3 23 -4 42 -3 42 1 0 51 -73 111 -162 59 -90 124 -186 145 -214 40
-55 34 -53 155 -38 l41 5 1 167 c2 441 0 410 20 416 26 9 62 44 62 61 0 13
-26 15 -153 15 l-154 0 -1 -30 c-1 -28 3 -31 41 -37 23 -4 45 -6 50 -5 4 1 7
-15 8 -35 2 -206 7 -301 14 -314 7 -12 6 -12 -6 -1 -8 7 -73 104 -144 215
l-131 202 -126 3 -125 3 -1 -28z"/>
<path d="M5428 3560 c-4 -28 -2 -30 36 -38 l41 -8 0 -249 c0 -155 -4 -252 -10
-257 -5 -5 -25 -18 -43 -29 -62 -37 -39 -44 152 -47 l177 -2 -3 27 c-2 19 -10
29 -23 31 -11 1 -30 5 -42 8 l-23 4 0 250 0 249 44 26 c34 20 43 30 39 45 -5
19 -15 20 -173 20 l-168 0 -4 -30z"/>
<path d="M6490 3560 c0 -24 5 -31 28 -36 15 -3 31 -7 37 -8 6 -2 10 -72 11
-177 1 -189 5 -224 38 -284 53 -99 152 -150 281 -143 145 8 225 73 251 202 4
17 8 110 9 206 2 96 3 177 4 180 0 3 19 16 41 30 23 14 39 31 38 40 -3 12 -29
15 -149 18 l-146 3 -1 -30 c-1 -27 3 -31 41 -38 l42 -9 0 -184 c-1 -265 -18
-311 -119 -316 -51 -2 -87 16 -118 58 -22 32 -23 40 -23 232 l0 199 30 19 c17
10 35 20 41 24 7 3 10 14 7 25 -5 18 -16 19 -174 19 l-169 0 0 -30z"/>
<path d="M2973 2708 c-53 -38 -65 -127 -27 -186 45 -69 173 -61 209 13 30 65
8 152 -46 180 -42 22 -99 19 -136 -7z m107 -43 c17 -32 17 -119 0 -140 -26
-31 -64 -13 -77 36 -9 37 -4 100 8 115 19 23 54 17 69 -11z"/>
<path d="M3633 2723 c-13 -2 -23 -11 -23 -19 0 -14 -32 -98 -66 -171 -8 -18
-19 -33 -24 -33 -6 0 -10 -4 -10 -10 0 -6 26 -10 58 -10 51 1 55 2 38 15 -28
21 -13 45 28 45 25 0 38 -6 46 -20 9 -16 8 -20 -5 -20 -8 0 -15 -4 -15 -10 0
-6 28 -10 65 -10 67 0 76 5 49 25 -9 6 -35 58 -58 115 -23 57 -46 104 -51 105
-6 1 -20 0 -32 -2z m21 -129 c5 -17 2 -20 -16 -19 -13 1 -22 5 -21 8 2 4 6 19
9 33 7 28 15 21 28 -22z"/>
<path d="M5692 2723 c-12 -2 -20 -8 -17 -12 8 -13 -64 -185 -86 -203 -10 -9
-19 -19 -19 -22 0 -3 25 -6 55 -6 52 0 72 11 40 24 -29 11 -4 36 35 36 46 0
58 -14 34 -41 -17 -19 -15 -19 163 -19 l181 0 4 28 c6 45 -1 62 -27 62 -17 0
-25 -6 -27 -22 -2 -14 -13 -24 -30 -29 -32 -8 -30 -12 -33 81 -3 78 2 100 21
100 8 0 12 5 9 10 -8 13 -135 13 -135 0 0 -6 7 -13 15 -16 12 -5 15 -25 15
-95 0 -76 -3 -90 -19 -98 -29 -16 -44 4 -92 122 -23 59 -48 106 -54 106 -5 -1
-20 -4 -33 -6z m16 -144 c-21 -13 -27 1 -16 34 l12 32 8 -30 c5 -19 3 -32 -4
-36z"/>
<path d="M6802 2714 c-59 -41 -48 -89 33 -135 59 -33 70 -61 27 -67 -16 -3
-27 5 -40 27 -22 40 -48 41 -54 1 -3 -16 -2 -34 2 -40 13 -21 69 -29 135 -21
25 4 47 32 50 64 4 40 -18 67 -76 91 -44 18 -56 42 -29 56 20 11 50 -9 50 -34
0 -7 10 -12 22 -11 18 1 23 9 26 37 3 30 0 36 -20 42 -42 11 -103 6 -126 -10z"/>
<path d="M7034 2711 c-35 -21 -67 -88 -60 -127 16 -85 87 -126 170 -98 34 12
46 21 43 33 -2 9 -10 14 -18 12 -8 -2 -30 -5 -51 -8 -33 -5 -38 -2 -52 25 -31
61 -15 142 29 142 20 0 27 -6 31 -30 5 -21 11 -29 25 -27 26 4 31 11 35 47 3
25 -1 32 -22 40 -40 16 -96 12 -130 -9z"/>
<path d="M7953 2714 c-34 -17 -63 -73 -63 -122 0 -33 31 -87 59 -101 43 -24
91 -19 159 15 1 1 0 8 -4 17 -4 12 -11 14 -31 6 -38 -14 -68 -11 -87 9 -30 34
-26 134 7 154 17 10 44 -9 51 -37 5 -20 12 -26 29 -23 12 2 21 6 20 10 -1 4 2
21 7 37 7 25 5 30 -16 40 -35 16 -93 13 -131 -5z"/>
<path d="M8414 2718 c-12 -5 -27 -21 -33 -35 -17 -37 5 -73 66 -106 41 -22 50
-31 46 -47 -8 -30 -41 -24 -61 10 -19 34 -51 40 -53 10 -1 -11 -2 -28 -3 -37
-1 -23 55 -42 109 -37 44 4 85 40 85 76 0 22 -54 78 -76 78 -8 0 -23 9 -35 21
-15 15 -18 24 -9 34 15 18 47 7 54 -19 6 -23 45 -34 47 -13 0 7 2 22 5 34 2
15 -3 26 -15 33 -25 13 -99 12 -127 -2z"/>
<path d="M3185 2710 c-3 -5 0 -10 8 -10 21 0 23 -13 22 -108 -2 -68 -5 -85
-21 -97 -17 -13 -11 -14 59 -15 45 0 77 4 77 10 0 9 -7 11 -27 9 -12 -1 -21
35 -13 56 6 15 15 19 39 17 21 -3 33 1 37 13 9 23 -2 29 -41 27 -19 -2 -35 1
-36 5 -4 40 -4 63 1 64 42 6 50 4 50 -13 0 -23 26 -34 44 -19 7 6 12 23 11 38
l-1 28 -101 3 c-62 2 -104 -1 -108 -8z"/>
<path d="M3800 2705 c0 -8 6 -14 12 -12 19 3 19 -183 1 -190 -37 -14 -2 -23
95 -23 l108 0 0 43 c-1 35 -5 43 -22 45 -16 2 -23 -4 -28 -21 -4 -18 -14 -26
-36 -29 l-30 -5 0 89 c0 70 3 90 15 94 34 13 11 24 -50 24 -51 0 -65 -3 -65
-15z"/>
<path d="M4033 2708 c2 -7 10 -12 16 -10 12 2 13 -15 11 -118 -1 -44 -6 -69
-16 -76 -7 -6 -14 -14 -14 -18 0 -3 49 -6 109 -6 l109 0 4 28 c2 15 2 35 0 45
-5 25 -41 21 -52 -7 -9 -24 -59 -42 -62 -22 0 6 -2 46 -2 88 -1 55 2 79 11 82
34 13 8 26 -53 26 -48 0 -64 -3 -61 -12z"/>
<path d="M4260 2711 c0 -5 7 -11 15 -15 24 -9 22 -184 -2 -202 -16 -12 -8 -13
55 -14 41 0 72 4 72 10 0 6 -6 10 -14 10 -20 0 -23 15 -20 105 2 100 1 95 20
95 8 0 12 5 9 10 -8 12 -135 13 -135 1z"/>
<path d="M4420 2711 c0 -5 6 -11 13 -13 18 -7 20 -173 1 -189 -29 -24 -12 -29
91 -29 l105 0 0 40 c0 34 -3 40 -20 40 -11 0 -24 -8 -27 -17 -9 -24 -22 -31
-45 -25 -15 3 -18 12 -16 36 3 29 5 31 38 28 30 -3 36 0 36 17 0 18 -7 21 -38
21 -36 0 -38 2 -38 33 0 27 4 33 21 33 12 0 28 -10 36 -22 21 -32 48 -21 51
22 l3 34 -106 0 c-58 0 -105 -4 -105 -9z"/>
<path d="M4660 2705 c0 -8 6 -14 12 -12 19 3 20 -183 2 -190 -36 -14 -6 -23
72 -23 119 0 160 26 170 109 3 28 -2 46 -19 72 -32 48 -60 59 -154 59 -67 0
-83 -3 -83 -15z m163 -47 c27 -59 26 -90 -7 -123 -42 -42 -56 -25 -56 65 0 80
1 81 41 89 4 0 14 -14 22 -31z"/>
<path d="M5045 2702 c18 -15 21 -28 20 -104 -1 -75 -4 -90 -20 -103 -18 -13
-14 -14 52 -15 39 0 75 5 78 10 3 6 -3 10 -14 10 -21 0 -29 21 -23 58 4 18 11
22 43 22 37 0 39 -2 39 -32 0 -17 -7 -40 -17 -50 -15 -17 -13 -18 55 -18 40 0
72 4 72 9 0 5 -8 11 -17 13 -16 3 -18 16 -18 93 -1 79 2 92 20 107 19 17 17
17 -52 18 -68 0 -93 -10 -58 -24 10 -3 15 -19 15 -43 0 -38 0 -38 -40 -38 -33
0 -40 4 -41 20 -2 35 2 50 17 61 25 20 15 24 -58 24 -70 -1 -72 -1 -53 -18z"/>
<path d="M5350 2710 c0 -5 6 -10 13 -10 9 0 12 -25 12 -92 0 -81 -2 -95 -20
-110 -19 -17 -15 -17 91 -18 l111 0 -1 38 c-1 30 -5 38 -23 40 -17 3 -23 -2
-23 -16 0 -22 -29 -34 -52 -21 -17 10 -13 58 6 60 6 1 22 2 36 2 15 1 26 9 28
20 3 14 -4 17 -38 17 -41 0 -41 1 -38 33 2 20 9 32 18 33 20 0 41 -16 34 -27
-3 -5 7 -9 23 -9 25 0 28 4 30 35 l2 35 -105 0 c-63 0 -104 -4 -104 -10z"/>
<path d="M6086 2693 c1 -16 2 -34 3 -40 1 -7 13 -13 27 -13 14 0 23 4 20 9 -9
14 4 41 20 41 23 0 22 -170 -2 -183 -31 -17 -11 -27 56 -27 66 0 92 12 52 24
-15 5 -18 19 -18 96 -1 81 1 90 18 90 10 0 17 -3 17 -7 -5 -31 3 -44 24 -41
18 2 23 10 25 41 l3 37 -124 0 -124 0 3 -27z"/>
<path d="M6345 2710 c-3 -5 1 -10 9 -10 25 0 23 -187 -1 -206 -16 -12 -8 -13
55 -14 41 0 72 4 72 10 0 6 -7 10 -15 10 -16 0 -17 3 -19 48 -1 25 2 27 41 30
l41 3 -2 -37 c-1 -21 -7 -39 -14 -42 -7 -2 -12 -8 -12 -13 0 -12 127 -12 135
1 3 6 -1 10 -9 10 -24 0 -28 16 -28 103 0 62 4 84 16 93 27 19 18 24 -49 24
-60 0 -84 -11 -51 -23 11 -5 15 -40 7 -77 -1 -5 -50 -5 -71 -1 -3 1 -6 17 -6
36 0 25 5 37 18 41 10 3 16 10 13 15 -8 12 -122 12 -130 -1z"/>
<path d="M7210 2711 c0 -5 6 -11 13 -13 18 -7 19 -185 0 -192 -7 -3 -13 -10
-13 -16 0 -13 127 -13 135 0 3 6 -3 10 -14 10 -20 0 -21 6 -21 95 0 76 3 97
15 101 34 13 11 24 -50 24 -36 0 -65 -4 -65 -9z"/>
<path d="M7374 2705 c26 -19 28 -182 2 -200 -9 -7 -16 -15 -16 -19 0 -3 47 -6
105 -6 77 0 105 3 106 13 5 55 3 62 -18 65 -21 3 -28 -6 -24 -30 0 -5 -10 -8
-24 -8 -14 0 -28 -1 -32 -2 -11 -4 -11 52 -1 58 5 3 24 6 42 6 29 0 33 3 28
20 -4 16 -12 19 -42 16 -35 -3 -36 -2 -36 29 1 25 6 33 24 36 18 3 26 -1 32
-18 13 -33 47 -22 52 16 3 16 2 31 0 34 -3 3 -53 5 -111 5 -93 -1 -104 -2 -87
-15z"/>
<path d="M7613 2706 c26 -20 29 -182 4 -201 -28 -20 -20 -25 46 -25 57 1 60 2
42 16 -15 11 -20 27 -21 69 l-1 54 26 -37 c15 -20 37 -53 49 -74 15 -23 29
-35 40 -33 9 2 24 4 33 4 13 1 16 17 16 103 1 82 4 104 17 113 27 20 18 25
-44 25 -58 0 -79 -13 -42 -24 15 -5 19 -16 18 -60 0 -43 -3 -52 -13 -44 -7 6
-13 14 -13 19 0 5 -16 31 -36 59 -35 49 -37 50 -87 50 -46 -1 -50 -2 -34 -14z"/>
<path d="M8134 2705 c16 -12 19 -28 19 -101 0 -69 -4 -90 -17 -99 -9 -7 -16
-15 -16 -19 0 -3 47 -6 105 -6 113 0 106 -3 109 55 1 28 -40 33 -47 6 -3 -13
-13 -21 -26 -21 -12 0 -24 -1 -27 -2 -11 -5 -13 51 -3 58 5 3 23 6 39 6 22 1
30 6 30 19 0 13 -9 19 -37 21 -33 3 -38 6 -38 28 -1 14 3 28 8 31 15 11 45 -2
50 -21 8 -33 44 -14 49 26 l4 34 -111 0 c-97 -1 -108 -2 -91 -15z"/>
</g>
</svg>
